<?xml version="1.0" encoding="UTF-8"?>
<svg version="1.1" xmlns="http://www.w3.org/2000/svg" width="64" height="64">
<path d="M0 0 C1.051875 0.20496094 1.051875 0.20496094 2.125 0.4140625 C2.455 0.0840625 2.785 -0.2459375 3.125 -0.5859375 C15.64379217 -1.79201626 15.64379217 -1.79201626 20.23046875 0.4375 C22.86352452 3.23270876 23.43415612 6.29512255 23.625 9.9765625 C23.42757315 13.90535674 22.1681118 16.07078865 20.125 19.4140625 C20.77163567 22.1144664 20.77163567 22.1144664 22.125 24.4140625 C23.34477329 26.85360908 23.32653813 28.56712099 23.375 31.2890625 C23.40078125 32.15273438 23.4265625 33.01640625 23.453125 33.90625 C23.06439672 36.8772447 21.9353102 38.09214289 20.125 40.4140625 C20.78596786 43.06651852 20.78596786 43.06651852 22.125 45.4140625 C23.32756511 47.81919271 23.3953777 49.54259814 23.5 52.2265625 C23.54898438 53.07863281 23.59796875 53.93070313 23.6484375 54.80859375 C22.87045187 58.68110432 21.25771816 60.07800909 18.125 62.4140625 C14.49609375 62.9375 14.49609375 62.9375 10.5625 62.7890625 C9.26183594 62.75554687 7.96117187 62.72203125 6.62109375 62.6875 C3.93418296 62.47735055 1.70252108 62.0820753 -0.875 61.4140625 C-1.205 61.7440625 -1.535 62.0740625 -1.875 62.4140625 C-4.49551074 62.59468527 -7.06460526 62.69214131 -9.6875 62.7265625 C-10.41259766 62.75556641 -11.13769531 62.78457031 -11.88476562 62.81445312 C-15.46906795 62.85708435 -17.44778545 62.74452351 -20.32421875 60.51953125 C-23.18452098 56.63614862 -23.43068626 53.14195054 -22.875 48.4140625 C-21.9148183 46.72414271 -20.92144066 45.05196962 -19.875 43.4140625 C-20.08953046 41.05422749 -20.71326298 39.68045288 -21.9375 37.6640625 C-23.34046243 34.29695268 -23.37410765 30.97911713 -22.875 27.4140625 C-21.89808143 25.73376256 -20.90111949 24.06477646 -19.875 22.4140625 C-20.07393961 19.69522121 -20.59674605 17.90873619 -21.9296875 15.5390625 C-23.59629726 11.79263395 -22.88268435 8.29295704 -21.875 4.4140625 C-17.68830625 -3.18401134 -7.47848376 -1.52414751 0 0 Z M0.125 17.4140625 C-1.36 19.3940625 -1.36 19.3940625 -2.875 21.4140625 C-0.895 22.4040625 -0.895 22.4040625 1.125 23.4140625 C1.785 22.4240625 2.445 21.4340625 3.125 20.4140625 C2.135 19.4240625 1.145 18.4340625 0.125 17.4140625 Z M-0.875 39.4140625 C-1.865 40.8990625 -1.865 40.8990625 -2.875 42.4140625 C-0.895 43.4040625 -0.895 43.4040625 1.125 44.4140625 C1.785 43.4240625 2.445 42.4340625 3.125 41.4140625 C2.795 40.7540625 2.465 40.0940625 2.125 39.4140625 C1.135 39.4140625 0.145 39.4140625 -0.875 39.4140625 Z " fill="#C9CBCC" transform="translate(30.875,1.5859375)"/>
<path d="M0 0 C1.99301736 1.58066894 2.86543351 2.73086702 4 5 C4.40616229 8.65546065 4.21434253 10.58917682 2.5 13.875 C-0.55590244 16.47251707 -2.19562277 16.63440426 -6.09765625 16.34375 C-8.95159775 15.82804804 -10.19219609 15.31398901 -12 13 C-12.89988447 10.28270181 -13.24495376 7.85593819 -13 5 C-9.57161409 -0.75479064 -6.34548281 -1.5863707 0 0 Z " fill="#02A9DF" transform="translate(46,46)"/>
<path d="M0 0 C2.82847039 2.60517009 3.8665852 4.1995112 4.5 8 C3.85480459 11.87117244 2.99993115 13.45005852 0 16 C-3.75912419 16.81653107 -6.89787544 16.45215366 -10.4375 15 C-12.83851498 11.92670082 -13.33112091 8.86056878 -13 5 C-9.6327208 -0.65221866 -6.27054342 -1.79158383 0 0 Z " fill="#02A9DF" transform="translate(46,25)"/>
<path d="M0 0 C2.82847039 2.60517009 3.8665852 4.1995112 4.5 8 C3.85480459 11.87117244 2.99993115 13.45005852 0 16 C-3.75912419 16.81653107 -6.89787544 16.45215366 -10.4375 15 C-12.83851498 11.92670082 -13.33112091 8.86056878 -13 5 C-9.6327208 -0.65221866 -6.27054342 -1.79158383 0 0 Z " fill="#02A9DF" transform="translate(25,25)"/>
<path d="M0 0 C2.82847039 2.60517009 3.8665852 4.1995112 4.5 8 C3.85480459 11.87117244 2.99993115 13.45005852 0 16 C-3.75912419 16.81653107 -6.89787544 16.45215366 -10.4375 15 C-12.83851498 11.92670082 -13.33112091 8.86056878 -13 5 C-9.6327208 -0.65221866 -6.27054342 -1.79158383 0 0 Z " fill="#01A9DF" transform="translate(46,4)"/>
<path d="M0 0 C2.82847039 2.60517009 3.8665852 4.1995112 4.5 8 C3.85480459 11.87117244 2.99993115 13.45005852 0 16 C-3.75912419 16.81653107 -6.89787544 16.45215366 -10.4375 15 C-12.83851498 11.92670082 -13.33112091 8.86056878 -13 5 C-9.6327208 -0.65221866 -6.27054342 -1.79158383 0 0 Z " fill="#01A9DF" transform="translate(25,4)"/>
<path d="M0 0 C2.81831785 2.59581908 3.85564038 4.23008205 4.5625 8 C3.78056289 12.17033126 2.44652326 13.55871269 -1 16 C-4.50401268 16.7226174 -7.68589178 16.6782494 -10.9375 15 C-12.6429581 11.78972592 -13.24499177 8.59087943 -13 5 C-9.6327208 -0.65221866 -6.27054342 -1.79158383 0 0 Z " fill="#02A9DF" transform="translate(25,46)"/>
</svg>
