<svg width="221" height="60" viewBox="0 0 221 60" fill="none" xmlns="http://www.w3.org/2000/svg">
<g clip-path="url(#clip0_23122_6465)">
<path d="M197.568 27.2045C197.568 13.1411 201.335 9.10254 210.05 9.10254C217.212 9.10254 220.96 13.578 220.96 19.084C220.96 21.6752 220.018 23.4761 217.275 23.4761C214.533 23.4761 213.833 22.3388 213.389 19.0039C213.014 16.2493 211.953 14.9553 210.05 14.9553C206.764 14.9553 205.126 16.4227 205.126 28.3784V30.5694C205.126 40.0973 205.341 45.023 209.834 45.023C210.839 44.9386 211.774 44.4741 212.451 43.7233C213.128 42.9724 213.496 41.9912 213.482 40.9777C213.688 36.5023 214.344 34.8882 217.368 34.8882C219.842 34.8882 221.016 36.609 221.016 39.2802C221.016 47.5842 216.307 50.9025 209.247 50.9025C197.91 50.9025 197.578 41.3346 197.578 33.5609L197.568 27.2045Z" fill="white"/>
<path d="M175.473 40.0406L174.024 47.3507C173.527 49.8619 172.592 50.8624 170.184 50.8624C169.375 50.9516 168.564 50.7156 167.927 50.2059C167.291 49.6961 166.88 48.954 166.785 48.1411V47.6342C166.828 46.5919 166.974 45.5563 167.22 44.5427L174.143 14.355C175.085 10.2664 176.027 9.10254 180.169 9.10254C183.869 9.10254 185.252 10.2664 186.174 14.3584L193.121 44.2693C193.383 45.2811 193.571 46.3111 193.681 47.3507C193.724 48.2197 193.426 49.0708 192.853 49.7225C192.28 50.3742 191.477 50.7749 190.614 50.8391C190.442 50.8491 190.269 50.8491 190.097 50.8391C187.408 50.8391 186.38 49.7219 185.683 46.0268L184.513 40.1807L175.473 40.0406ZM183.339 34.1111L180.122 17.3898H180.009L176.693 34.1111H183.339Z" fill="white"/>
<path d="M142.741 13.2278C142.741 10.3665 144.011 9.10254 146.75 9.10254H156.035C162.276 9.10254 166.159 12.4808 166.159 20.7514C166.159 27.3145 163.154 32.8872 156.642 32.8872H150.199V47.2274C150.172 48.1638 149.8 49.0567 149.155 49.733C148.51 50.4092 147.639 50.8204 146.71 50.8869C145.781 50.9534 144.86 50.6703 144.127 50.0927C143.393 49.5151 142.899 48.6841 142.741 47.7609V47.6842C142.724 47.5302 142.724 47.3748 142.741 47.2207V13.2278ZM150.199 27.1645H153.535C156.877 27.1645 158.383 24.8734 158.383 21.4184C158.383 17.2164 156.705 15.3689 153.933 15.3689H150.169L150.199 27.1645Z" fill="white"/>
<path d="M120.763 29.5695L114.25 15.3628C113.783 14.4766 113.505 13.5019 113.434 12.5014C113.443 11.5968 113.808 10.7327 114.45 10.0987C115.091 9.46475 115.957 9.11267 116.856 9.11978H117.009C118.69 9.11978 119.831 9.74008 121.018 12.7649L124.709 22.7329L129.179 11.8578C130.014 9.95018 130.956 9.12979 132.415 9.12979C132.838 9.07654 133.267 9.10754 133.677 9.22102C134.088 9.3345 134.473 9.52823 134.809 9.79115C135.145 10.0541 135.427 10.381 135.637 10.7534C135.848 11.1257 135.983 11.5361 136.036 11.9611V12.0012C136.046 12.1644 136.046 12.3281 136.036 12.4914C136.014 13.3016 135.82 14.0976 135.466 14.8258L128.688 29.6195L135.837 45.3737C136.17 46.0605 136.384 46.7992 136.471 47.5581C136.46 48.4292 136.112 49.262 135.502 49.8805C134.892 50.499 134.067 50.8549 133.201 50.873H132.869C132.035 50.8969 131.217 50.6321 130.554 50.1229C129.89 49.6137 129.42 48.8908 129.222 48.075L124.5 36.6262L119.655 48.5786C119.449 49.2648 119.025 49.8644 118.449 50.2859C117.872 50.7074 117.174 50.9276 116.462 50.913C115.611 50.9726 114.771 50.69 114.127 50.1272C113.482 49.5644 113.087 48.7676 113.026 47.9116V47.5114C113.119 46.2353 113.485 44.9943 114.097 43.873L120.763 29.5695Z" fill="white"/>
<path d="M98.6287 13.0881C98.5702 12.5951 98.6102 12.0953 98.7463 11.618C98.8825 11.1408 99.1121 10.6957 99.4216 10.3089C99.7312 9.92204 100.114 9.6013 100.549 9.36544C100.983 9.12959 101.46 8.98339 101.952 8.93541C102.443 8.88744 102.939 8.93866 103.41 9.08606C103.882 9.23347 104.319 9.47409 104.697 9.79381C105.075 10.1135 105.385 10.5059 105.61 10.9479C105.835 11.3899 105.97 11.8727 106.007 12.3678C106.007 12.4412 106.007 12.5145 106.023 12.5879C106.033 12.7389 106.033 12.8904 106.023 13.0415V46.9109C106.118 47.8953 105.82 48.8772 105.194 49.6405C104.569 50.4039 103.668 50.8861 102.689 50.9812C101.71 51.0763 100.734 50.7764 99.975 50.1475C99.216 49.5187 98.7365 48.6124 98.6419 47.6279C98.6419 47.5546 98.6419 47.4845 98.6419 47.4112C98.622 47.2606 98.622 47.1081 98.6419 46.9576L98.6287 13.0881Z" fill="white"/>
<path d="M74.2754 29.3922C72.6394 28.3459 71.3123 26.8777 70.4322 25.1404C69.5521 23.403 69.1513 21.4602 69.2715 19.5142C69.2217 12.4775 74.6169 9.10254 80.8776 9.10254C89.1312 9.10254 91.8967 15.042 91.8967 19.1273C91.982 20.0371 91.7064 20.9438 91.1301 21.6502C90.5537 22.3567 89.7233 22.8055 88.8194 22.8991H88.2557C85.2912 22.8991 84.8468 21.5185 84.4887 18.6938C84.4826 17.7295 84.0993 16.8064 83.4216 16.1242C82.7439 15.4421 81.8264 15.0557 80.8676 15.0487H80.3967C79.4311 14.9903 78.4819 15.3202 77.7581 15.9656C77.0342 16.611 76.5949 17.5192 76.5369 18.4903V18.517V18.8238C76.5369 20.6414 76.8685 22.3122 80.5161 24.7533L85.9478 28.3417C89.9568 31.0096 92.3775 33.9244 92.3775 39.7205C92.4306 46.5837 88.3983 50.8724 79.9159 50.8724C77.1688 51.0197 74.4759 50.0641 72.429 48.2156C70.3821 46.3672 69.1486 43.777 68.9996 41.0144C68.9962 40.9923 68.9962 40.9698 68.9996 40.9477H68.9996V40.3141C68.9996 37.6461 69.5998 35.2583 72.7599 35.2583C75.0812 35.2583 76.1788 36.5356 76.4076 40.0273C76.5767 42.7519 77.8401 44.9563 80.8013 44.9563C81.8971 44.9933 82.9631 44.5936 83.7674 43.8441C84.5716 43.0947 85.049 42.0561 85.0955 40.9544C85.1155 40.7325 85.1155 40.5093 85.0955 40.2874C85.0955 37.5794 84.051 36.2855 81.3285 34.3746L74.2754 29.3922Z" fill="white"/>
</g>
<circle cx="30.0001" cy="30.0001" r="28.8145" fill="#13294D" stroke="white" stroke-width="1.5"/>
<circle cx="22.7415" cy="15.9681" r="6.29032" fill="#00A9E0"/>
<circle cx="37.2581" cy="15.9681" r="6.29032" fill="#00A9E0"/>
<circle cx="37.2581" cy="30.4847" r="6.29032" fill="#00A9E0"/>
<circle cx="22.7415" cy="30.4847" r="6.29032" fill="#00A9E0"/>
<circle cx="22.7415" cy="44.0325" r="6.29032" fill="#00A9E0"/>
<circle cx="37.2581" cy="44.0325" r="6.29032" fill="#00A9E0"/>
<path d="M23.8622 51.774H22.3328C22.0579 51.7273 21.783 51.6885 21.5096 51.6325C20.0025 51.3344 18.6119 50.6154 17.5003 49.5597C16.3888 48.5039 15.6022 47.1551 15.2328 45.6709C15.1328 45.2683 15.0765 44.8532 15.0062 44.4428V42.9287C15.064 42.5976 15.1062 42.2758 15.1734 41.9525C15.4826 40.5529 16.1597 39.26 17.1355 38.2061C17.3827 37.9504 17.5557 37.6328 17.636 37.2871C17.7163 36.9414 17.701 36.5805 17.5916 36.2427C17.4714 35.897 17.2732 35.5832 17.0121 35.3256C16.104 34.3182 15.4752 33.093 15.1875 31.7704C15.1078 31.4159 15.0609 31.0553 15 30.6962V29.2971C15.0562 28.9645 15.0984 28.6147 15.1672 28.2789C15.4653 26.8739 16.1438 25.5768 17.1292 24.5279C17.4799 24.144 17.6722 23.6427 17.6675 23.1239C17.6629 22.6052 17.4617 22.1073 17.1042 21.7297C15.9549 20.4921 15.242 18.9155 15.0734 17.2387L15.0031 16.6324V16.0355C15.0088 15.9899 15.0177 15.9447 15.0297 15.9003C15.0812 15.493 15.1078 15.081 15.1968 14.68C15.541 13.0075 16.4105 11.4871 17.6797 10.3384C18.9489 9.1897 20.5521 8.47213 22.2579 8.28932L22.8905 8.22559H23.3717C23.4311 8.23047 23.49 8.2393 23.5482 8.25201C23.9434 8.29865 24.3449 8.32041 24.7355 8.39658C26.1869 8.6686 27.5316 9.34329 28.6144 10.3428C28.9935 10.6885 29.489 10.8802 30.0031 10.8802C30.5173 10.8802 31.0128 10.6885 31.3919 10.3428C32.3824 9.41007 33.604 8.75561 34.9318 8.44633C35.3192 8.35306 35.7129 8.29088 36.1003 8.22559H37.6625C37.939 8.27222 38.2139 8.31264 38.4873 8.36705C39.9969 8.66581 41.3896 9.38663 42.5021 10.445C43.6147 11.5034 44.401 12.8554 44.7688 14.3426C44.8657 14.739 44.9172 15.1479 44.9906 15.5505V17.0646C44.9842 17.1035 44.9753 17.1419 44.9641 17.1796C44.8906 17.5776 44.8407 17.9802 44.7376 18.3704C44.4112 19.6578 43.7607 20.8412 42.8473 21.809C42.5157 22.1768 42.331 22.6527 42.3282 23.1468C42.3253 23.6409 42.5044 24.119 42.8317 24.4906C43.8377 25.5417 44.5273 26.8526 44.8219 28.2743C44.8953 28.6163 44.9422 28.9645 45 29.3096V30.7086C44.9734 30.8921 44.9516 31.0755 44.9219 31.2589C44.6827 32.8449 43.964 34.3207 42.8614 35.4904C42.5199 35.8708 42.3326 36.3639 42.3358 36.8741C42.339 37.3842 42.5324 37.8749 42.8786 38.2512C43.8996 39.3296 44.5845 40.6796 44.85 42.1375C44.911 42.4484 44.95 42.7764 44.9984 43.0966V44.2921C44.9891 44.3309 44.9797 44.3682 44.9734 44.4071C44.8935 45.439 44.6033 46.4439 44.1205 47.3607C42.9364 49.593 41.118 51.0123 38.6326 51.589C38.2639 51.6729 37.8843 51.7133 37.5109 51.7724H36.23C35.9863 51.7382 35.7426 51.7087 35.5004 51.6667C33.9623 51.421 32.5331 50.7232 31.3966 49.6629C31.0205 49.3156 30.5271 49.1213 30.014 49.1184C29.5009 49.1155 29.0053 49.3043 28.6253 49.6474C27.6367 50.5785 26.4181 51.2328 25.0932 51.5439C24.6886 51.6434 24.2684 51.6916 23.8622 51.774ZM36.8595 35.5525C37.9637 35.5553 39.0439 35.2322 39.9636 34.6241C40.8832 34.016 41.601 33.1501 42.0262 32.1361C42.4514 31.122 42.5649 30.0053 42.3523 28.9271C42.1397 27.8489 41.6107 26.8576 40.832 26.0786C40.0533 25.2995 39.0599 24.7678 37.9775 24.5505C36.8951 24.3333 35.7723 24.4402 34.751 24.858C33.7297 25.2757 32.8559 25.9853 32.2399 26.8973C31.6239 27.8092 31.2934 28.8824 31.2904 29.9811V29.9967C31.2873 30.7222 31.4278 31.4412 31.704 32.1127C31.9802 32.7842 32.3865 33.3949 32.8999 33.9101C33.4133 34.4253 34.0236 34.8348 34.696 35.1153C35.3684 35.3958 36.0898 35.5417 36.8189 35.5448L36.8595 35.5525ZM36.8595 49.2494C37.9649 49.2534 39.0466 48.9312 39.9679 48.3235C40.8892 47.7158 41.6088 46.8499 42.0357 45.8352C42.4625 44.8206 42.5775 43.7029 42.366 42.6232C42.1545 41.5436 41.6261 40.5506 40.8475 39.7698C40.069 38.989 39.0753 38.4554 37.992 38.2365C36.9088 38.0177 35.7847 38.1233 34.7617 38.5401C33.7388 38.9569 32.863 39.6662 32.2452 40.5782C31.6273 41.4902 31.295 42.5641 31.2904 43.664V43.6967C31.2893 44.4255 31.4326 45.1473 31.7119 45.821C31.9912 46.4947 32.4011 47.1071 32.9183 47.6231C33.4354 48.1392 34.0497 48.5488 34.7259 48.8287C35.4021 49.1085 36.1271 49.2531 36.8595 49.2541V49.2494ZM31.2857 16.3215C31.2979 17.7803 31.8903 19.1748 32.9334 20.1999C33.9764 21.225 35.3851 21.7971 36.8511 21.7911C38.3171 21.785 39.721 21.2013 40.7554 20.1676C41.7899 19.1339 42.3707 17.7345 42.3707 16.2757C42.3707 14.8169 41.7899 13.4175 40.7554 12.3838C39.721 11.3501 38.3171 10.7663 36.8511 10.7603C35.3851 10.7542 33.9764 11.3263 32.9334 12.3514C31.8903 13.3765 31.2979 14.7711 31.2857 16.2298V16.3215ZM28.7128 16.3215C28.7061 14.858 28.1164 13.4569 27.073 12.4255C26.0295 11.3942 24.6175 10.8168 23.1468 10.8201C21.6761 10.8234 20.2667 11.4071 19.2279 12.4431C18.1892 13.4791 17.6058 14.8829 17.6058 16.3464C17.6058 17.8099 18.1892 19.2137 19.2279 20.2497C20.2667 21.2857 21.6761 21.8694 23.1468 21.8727C24.6175 21.876 26.0295 21.2986 27.073 20.2673C28.1164 19.2359 28.7061 17.8348 28.7128 16.3713V16.3215ZM28.7128 30.0013C28.7095 28.5326 28.1204 27.1253 27.075 26.0885C26.0296 25.0517 24.6133 24.4703 23.1374 24.4719C21.6614 24.4735 20.2465 25.0581 19.2034 26.0973C18.1604 27.1364 17.5745 28.5451 17.5745 30.0138C17.5745 31.4825 18.1604 32.8911 19.2034 33.9303C20.2465 34.9694 21.6614 35.554 23.1374 35.5556C24.6133 35.5573 26.0296 34.9758 27.075 33.9391C28.1204 32.9023 28.7095 31.4949 28.7128 30.0262V30.0013ZM28.7128 43.7666C28.7208 43.1475 28.6279 42.5312 28.4378 41.9416C27.998 40.6012 27.0624 39.4773 25.8206 38.7981C24.5789 38.1188 23.124 37.9349 21.751 38.2837C20.378 38.6326 19.1898 39.488 18.4272 40.6765C17.6647 41.865 17.385 43.2976 17.6448 44.6838C18.0462 46.7933 19.3132 48.2297 21.3643 48.9525C22.4606 49.3708 23.6766 49.3535 24.7605 48.9043C26.054 48.3791 27.1521 47.4678 27.9036 46.2958C28.4158 45.551 28.6987 44.6737 28.7175 43.7713L28.7128 43.7666ZM30 34.3338C29.3486 35.3366 28.4915 36.1911 27.4849 36.8412C28.492 37.4887 29.3494 38.3418 30 39.344C30.3311 38.8418 30.711 38.3732 31.1341 37.9449C31.5593 37.5331 32.0215 37.1611 32.5151 36.8335C31.5122 36.1854 30.66 35.3315 30.0156 34.3291L30 34.3338ZM30 20.654C29.3505 21.6594 28.4918 22.5145 27.4818 23.1614C28.489 23.8092 29.3471 24.6616 30 25.6627C30.6523 24.6601 31.5118 23.8074 32.5214 23.1614C31.51 22.5126 30.6502 21.6554 30 20.6478V20.654Z" fill="white"/>
<defs>
<clipPath id="clip0_23122_6465">
<rect width="152" height="42" fill="white" transform="translate(69 9)"/>
</clipPath>
</defs>
</svg>
